<?xml version="1.0" encoding="UTF-8" standalone="no"?>
<!-- Created with Inkscape (http://www.inkscape.org/) -->

<svg
   xmlns:dc="http://purl.org/dc/elements/1.1/"
   xmlns:cc="http://creativecommons.org/ns#"
   xmlns:rdf="http://www.w3.org/1999/02/22-rdf-syntax-ns#"
   xmlns:svg="http://www.w3.org/2000/svg"
   xmlns="http://www.w3.org/2000/svg"
   xmlns:sodipodi="http://sodipodi.sourceforge.net/DTD/sodipodi-0.dtd"
   xmlns:inkscape="http://www.inkscape.org/namespaces/inkscape"
   width="900"
   height="500"
   viewBox="0 0 900.00002 500.00001"
   id="svg2"
   version="1.1"
   inkscape:version="0.91 r13725"
   sodipodi:docname="logo.svg">
  <defs
     id="defs4" />
  <sodipodi:namedview
     id="base"
     pagecolor="#ffffff"
     bordercolor="#666666"
     borderopacity="1.0"
     inkscape:pageopacity="0.0"
     inkscape:pageshadow="2"
     inkscape:zoom="0.24748737"
     inkscape:cx="-199.13028"
     inkscape:cy="357.51992"
     inkscape:document-units="px"
     inkscape:current-layer="layer1"
     showgrid="false"
     units="px"
     inkscape:window-width="1366"
     inkscape:window-height="715"
     inkscape:window-x="-8"
     inkscape:window-y="-8"
     inkscape:window-maximized="1" />
  <metadata
     id="metadata7">
    <rdf:RDF>
      <cc:Work
         rdf:about="">
        <dc:format>image/svg+xml</dc:format>
        <dc:type
           rdf:resource="http://purl.org/dc/dcmitype/StillImage" />
        <dc:title></dc:title>
      </cc:Work>
    </rdf:RDF>
  </metadata>
  <g
     inkscape:label="Calque 1"
     inkscape:groupmode="layer"
     id="layer1"
     transform="translate(0,-552.36216)">
    <g
       transform="matrix(1.1521776,0,0,1.2338091,-96.745263,-53.275278)"
       style="font-style:normal;font-weight:normal;font-size:38.65411377px;line-height:125%;font-family:sans-serif;letter-spacing:0px;word-spacing:0px;fill:#000000;fill-opacity:1;stroke:none;stroke-width:1px;stroke-linecap:butt;stroke-linejoin:miter;stroke-opacity:1"
       id="text4001">
      <path
         d="m 153.26753,653.31745 q -12.92497,0 -23.43405,-5.55653 -10.3883,-5.67732 -16.428,-15.58244 -5.91891,-10.02591 -5.91891,-22.5885 0,-12.56258 5.91891,-22.4677 6.0397,-10.02591 16.428,-15.58244 10.50908,-5.67732 23.55485,-5.67732 10.99226,0 19.81023,3.86541 8.93876,3.86541 14.97847,11.11306 l -12.56259,11.59623 q -8.57638,-9.90512 -21.25976,-9.90512 -7.85162,0 -14.01212,3.50303 -6.1605,3.38224 -9.66353,9.54274 -3.38223,6.1605 -3.38223,14.01211 0,7.85162 3.38223,14.01212 3.50303,6.1605 9.66353,9.66353 6.1605,3.38223 14.01212,3.38223 12.68338,0 21.25976,-10.02591 l 12.56259,11.59624 q -6.03971,7.36844 -14.97847,11.23385 -8.93876,3.86541 -19.93103,3.86541 z"
         style="font-style:normal;font-variant:normal;font-weight:bold;font-stretch:normal;font-size:120.79410553px;font-family:Montserrat;-inkscape-font-specification:'Montserrat Bold';fill:#ffb300;fill-opacity:1"
         id="path4055"
         inkscape:connector-curvature="0" />
      <path
         d="m 228.50905,652.83427 q -10.2675,0 -18.4815,-4.22779 -8.09321,-4.34859 -12.68338,-11.95862 -4.59018,-7.61003 -4.59018,-17.27355 0,-9.66353 4.59018,-17.27356 4.59017,-7.61003 12.68338,-11.83782 8.214,-4.34859 18.4815,-4.34859 10.2675,0 18.3607,4.34859 8.09321,4.22779 12.68338,11.83782 4.59018,7.61003 4.59018,17.27356 0,9.66352 -4.59018,17.27355 -4.59017,7.61003 -12.68338,11.95862 -8.0932,4.22779 -18.3607,4.22779 z m 0,-15.46164 q 7.24764,0 11.83782,-4.83177 4.71097,-4.95256 4.71097,-13.16655 0,-8.214 -4.71097,-13.04577 -4.59018,-4.95256 -11.83782,-4.95256 -7.24765,0 -11.95862,4.95256 -4.71097,4.83177 -4.71097,13.04577 0,8.21399 4.71097,13.16655 4.71097,4.83177 11.95862,4.83177 z"
         style="font-style:normal;font-variant:normal;font-weight:bold;font-stretch:normal;font-size:120.79410553px;font-family:Montserrat;-inkscape-font-specification:'Montserrat Bold';fill:#ffb300;fill-opacity:1"
         id="path4057"
         inkscape:connector-curvature="0" />
      <path
         d="m 359.8481,585.91434 q 12.20021,0 19.32706,7.24764 7.24765,7.12686 7.24765,21.50136 l 0,37.20458 -18.84388,0 0,-34.30553 q 0,-7.73082 -3.26144,-11.47544 -3.14065,-3.86541 -9.05956,-3.86541 -6.64368,0 -10.50909,4.34859 -3.86541,4.22779 -3.86541,12.68338 l 0,32.61441 -18.84388,0 0,-34.30553 q 0,-15.34085 -12.321,-15.34085 -6.52288,0 -10.38829,4.34859 -3.86541,4.22779 -3.86541,12.68338 l 0,32.61441 -18.84388,0 0,-64.98723 17.99832,0 0,7.48924 q 3.62382,-4.107 8.81797,-6.2813 5.31494,-2.17429 11.59623,-2.17429 6.88527,0 12.44179,2.77826 5.55653,2.65747 8.93877,7.85162 3.9862,-5.07335 10.02591,-7.85162 6.1605,-2.77826 13.40814,-2.77826 z"
         style="font-style:normal;font-variant:normal;font-weight:bold;font-stretch:normal;font-size:120.79410553px;font-family:Montserrat;-inkscape-font-specification:'Montserrat Bold';fill:#ffb300;fill-opacity:1"
         id="path4059"
         inkscape:connector-curvature="0" />
      <path
         d="m 486.54037,585.91434 q 12.2002,0 19.32705,7.24764 7.24765,7.12686 7.24765,21.50136 l 0,37.20458 -18.84388,0 0,-34.30553 q 0,-7.73082 -3.26144,-11.47544 -3.14065,-3.86541 -9.05956,-3.86541 -6.64368,0 -10.50909,4.34859 -3.86541,4.22779 -3.86541,12.68338 l 0,32.61441 -18.84388,0 0,-34.30553 q 0,-15.34085 -12.321,-15.34085 -6.52288,0 -10.38829,4.34859 -3.86541,4.22779 -3.86541,12.68338 l 0,32.61441 -18.84388,0 0,-64.98723 17.99832,0 0,7.48924 q 3.62382,-4.107 8.81797,-6.2813 5.31494,-2.17429 11.59623,-2.17429 6.88527,0 12.44179,2.77826 5.55653,2.65747 8.93877,7.85162 3.9862,-5.07335 10.02591,-7.85162 6.1605,-2.77826 13.40815,-2.77826 z"
         style="font-style:normal;font-variant:normal;font-weight:bold;font-stretch:normal;font-size:120.79410553px;font-family:Montserrat;-inkscape-font-specification:'Montserrat Bold';fill:#ffb300;fill-opacity:1"
         id="path4061"
         inkscape:connector-curvature="0" />
      <path
         d="m 594.37174,619.61589 q 0,0.36239 -0.36238,5.07336 l -49.1632,0 q 1.32874,6.0397 6.28129,9.54273 4.95256,3.50303 12.321,3.50303 5.07336,0 8.93877,-1.44953 3.9862,-1.57032 7.36844,-4.83176 l 10.02591,10.87147 q -9.18035,10.50908 -26.81629,10.50908 -10.99227,0 -19.44785,-4.22779 -8.45559,-4.34859 -13.04577,-11.95862 -4.59017,-7.61003 -4.59017,-17.27355 0,-9.54274 4.46938,-17.15277 4.59017,-7.73082 12.44179,-11.95861 7.97241,-4.34859 17.75673,-4.34859 9.54274,0 17.27356,4.107 7.73082,4.107 12.07941,11.83782 4.46938,7.61003 4.46938,17.75673 z m -33.70155,-19.44785 q -6.40209,0 -10.75068,3.62383 -4.34858,3.62382 -5.31494,9.90511 l 32.01044,0 q -0.96635,-6.1605 -5.31494,-9.78432 -4.34859,-3.74462 -10.62988,-3.74462 z"
         style="font-style:normal;font-variant:normal;font-weight:bold;font-stretch:normal;font-size:120.79410553px;font-family:Montserrat;-inkscape-font-specification:'Montserrat Bold';fill:#ffb300;fill-opacity:1"
         id="path4063"
         inkscape:connector-curvature="0" />
      <path
         d="m 667.3389,585.91434 q 15.09926,0 23.19247,7.24764 8.09321,7.12686 8.09321,21.62215 l 0,37.08379 -17.63594,0 0,-8.09321 q -5.31495,9.05956 -19.81024,9.05956 -7.48923,0 -13.04576,-2.53667 -5.43574,-2.53668 -8.33479,-7.00606 -2.89906,-4.46938 -2.89906,-10.14671 0,-9.05955 6.76447,-14.2537 6.88526,-5.19415 21.13897,-5.19415 l 14.97846,0 q 0,-6.1605 -3.74461,-9.42194 -3.74462,-3.38223 -11.23385,-3.38223 -5.19415,0 -10.2675,1.69111 -4.95256,1.57033 -8.45559,4.34859 l -6.76447,-13.16655 q 5.31494,-3.74462 12.68338,-5.79812 7.48923,-2.0535 15.34085,-2.0535 z m -1.44953,54.23655 q 4.83177,0 8.57638,-2.17429 3.74462,-2.29509 5.31494,-6.64368 l 0,-6.64367 -12.92496,0 q -11.59624,0 -11.59624,7.61002 0,3.62383 2.77827,5.79812 2.89905,2.0535 7.85161,2.0535 z m -22.22611,-78.99934 20.29341,0 16.3072,17.39435 -14.73688,0 -21.86373,-17.39435 z"
         style="font-style:normal;font-variant:normal;font-weight:bold;font-stretch:normal;font-size:120.79410553px;font-family:Montserrat;-inkscape-font-specification:'Montserrat Bold';fill:#ffb300;fill-opacity:1"
         id="path4065"
         inkscape:connector-curvature="0" />
      <path
         d="m 749.88848,562.23869 18.84388,0 0,89.62923 -18.84388,0 0,-89.62923 z"
         style="font-style:normal;font-variant:normal;font-weight:bold;font-stretch:normal;font-size:120.79410553px;font-family:Montserrat;-inkscape-font-specification:'Montserrat Bold';fill:#ffb300;fill-opacity:1"
         id="path4067"
         inkscape:connector-curvature="0" />
      <path
         d="m 812.43338,585.91434 q 15.09927,0 23.19247,7.24764 8.09321,7.12686 8.09321,21.62215 l 0,37.08379 -17.63594,0 0,-8.09321 q -5.31494,9.05956 -19.81024,9.05956 -7.48923,0 -13.04576,-2.53667 -5.43573,-2.53668 -8.33479,-7.00606 -2.89906,-4.46938 -2.89906,-10.14671 0,-9.05955 6.76447,-14.2537 6.88526,-5.19415 21.13897,-5.19415 l 14.97847,0 q 0,-6.1605 -3.74462,-9.42194 -3.74462,-3.38223 -11.23385,-3.38223 -5.19415,0 -10.2675,1.69111 -4.95256,1.57033 -8.45559,4.34859 l -6.76447,-13.16655 q 5.31494,-3.74462 12.68338,-5.79812 7.48924,-2.0535 15.34085,-2.0535 z m -1.44953,54.23655 q 4.83177,0 8.57639,-2.17429 3.74461,-2.29509 5.31494,-6.64368 l 0,-6.64367 -12.92497,0 q -11.59624,0 -11.59624,7.61002 0,3.62383 2.77827,5.79812 2.89906,2.0535 7.85161,2.0535 z"
         style="font-style:normal;font-variant:normal;font-weight:bold;font-stretch:normal;font-size:120.79410553px;font-family:Montserrat;-inkscape-font-specification:'Montserrat Bold';fill:#ffb300;fill-opacity:1"
         id="path4069"
         inkscape:connector-curvature="0" />
    </g>
    <g
       transform="matrix(1.0845179,0,0,1.3107826,-96.745263,-39.153447)"
       style="font-style:normal;font-weight:normal;font-size:40.32273483px;line-height:125%;font-family:sans-serif;letter-spacing:0px;word-spacing:0px;fill:#000000;fill-opacity:1;stroke:none;stroke-width:1px;stroke-linecap:butt;stroke-linejoin:miter;stroke-opacity:1"
       id="text4001-2">
      <path
         d="m 235.61543,757.77509 -0.18777,-78.86348 -38.68066,64.96848 -13.70722,0 -38.49289,-63.27855 0,77.17355 -28.54107,0 0,-131.43914 25.16121,0 49.19579,81.68004 48.44471,-81.68004 24.97343,0 0.37554,131.43914 -28.54107,0 z"
         style="font-style:normal;font-variant:normal;font-weight:bold;font-stretch:normal;font-size:187.77018738px;font-family:Montserrat;-inkscape-font-specification:'Montserrat Bold';fill:#ffb300;fill-opacity:1"
         id="path4042"
         inkscape:connector-curvature="0" />
      <path
         d="m 381.90309,729.60956 -61.02532,0 -11.64175,28.16553 -31.16985,0 58.5843,-131.43914 30.04323,0 58.77207,131.43914 -31.92093,0 -11.64175,-28.16553 z m -9.57628,-23.09574 -20.84249,-50.32241 -20.8425,50.32241 41.68499,0 z"
         style="font-style:normal;font-variant:normal;font-weight:bold;font-stretch:normal;font-size:187.77018738px;font-family:Montserrat;-inkscape-font-specification:'Montserrat Bold';fill:#ffb300;fill-opacity:1"
         id="path4044"
         inkscape:connector-curvature="0" />
      <path
         d="m 439.10256,626.33595 30.41878,0 0,131.43914 -30.41878,0 0,-131.43914 z"
         style="font-style:normal;font-variant:normal;font-weight:bold;font-stretch:normal;font-size:187.77018738px;font-family:Montserrat;-inkscape-font-specification:'Montserrat Bold';fill:#ffb300;fill-opacity:1"
         id="path4046"
         inkscape:connector-curvature="0" />
      <path
         d="m 543.90183,760.02833 q -15.58493,0 -30.231,-4.13095 -14.45831,-4.31871 -23.2835,-11.07844 l 10.32736,-22.90796 q 8.44965,6.19642 20.09141,9.95182 11.64175,3.7554 23.2835,3.7554 12.95614,0 19.15256,-3.7554 6.19641,-3.94317 6.19641,-10.32736 0,-4.69426 -3.7554,-7.69858 -3.56763,-3.19209 -9.38851,-5.06979 -5.6331,-1.87771 -15.39715,-4.13095 -15.02162,-3.56763 -24.5979,-7.13526 -9.57628,-3.56764 -16.52377,-11.45399 -6.75973,-7.88634 -6.75973,-21.03026 0,-11.45398 6.19641,-20.65472 6.19642,-9.38851 18.58925,-14.83384 12.58061,-5.44534 30.60654,-5.44534 12.58061,0 24.5979,3.00433 12.01729,3.00432 21.03026,8.63742 l -9.38851,23.09574 q -18.21371,-10.32736 -36.42742,-10.32736 -12.76837,0 -18.96479,4.13094 -6.00864,4.13094 -6.00864,10.89067 0,6.75973 6.9475,10.13959 7.13526,3.19209 21.59357,6.38419 15.02161,3.56763 24.59789,7.13526 9.57628,3.56764 16.33601,11.26622 6.9475,7.69857 6.9475,20.84249 0,11.26621 -6.38419,20.65472 -6.19642,9.20074 -18.77702,14.64607 -12.5806,5.44534 -30.60654,5.44534 z"
         style="font-style:normal;font-variant:normal;font-weight:bold;font-stretch:normal;font-size:187.77018738px;font-family:Montserrat;-inkscape-font-specification:'Montserrat Bold';fill:#ffb300;fill-opacity:1"
         id="path4048"
         inkscape:connector-curvature="0" />
      <path
         d="m 684.2923,760.02833 q -20.46695,0 -36.99072,-8.8252 -16.33601,-8.8252 -25.72452,-24.22236 -9.20074,-15.58492 -9.20074,-34.92525 0,-19.34033 9.20074,-34.73748 9.38851,-15.58493 25.72452,-24.41013 16.52377,-8.8252 36.99072,-8.8252 20.46695,0 36.80296,8.8252 16.33601,8.8252 25.72452,24.41013 9.3885,15.39715 9.3885,34.73748 0,19.34033 -9.3885,34.92525 -9.38851,15.39716 -25.72452,24.22236 -16.33601,8.8252 -36.80296,8.8252 z m 0,-25.91229 q 11.64175,0 21.03026,-5.25756 9.38851,-5.44534 14.64608,-15.02162 5.44533,-9.57628 5.44533,-21.78134 0,-12.20506 -5.44533,-21.78134 -5.25757,-9.57628 -14.64608,-14.83385 -9.38851,-5.44533 -21.03026,-5.44533 -11.64175,0 -21.03026,5.44533 -9.38851,5.25757 -14.83384,14.83385 -5.25757,9.57628 -5.25757,21.78134 0,12.20506 5.25757,21.78134 5.44533,9.57628 14.83384,15.02162 9.38851,5.25756 21.03026,5.25756 z"
         style="font-style:normal;font-variant:normal;font-weight:bold;font-stretch:normal;font-size:187.77018738px;font-family:Montserrat;-inkscape-font-specification:'Montserrat Bold';fill:#ffb300;fill-opacity:1"
         id="path4050"
         inkscape:connector-curvature="0" />
      <path
         d="m 899.61776,626.33595 0,131.43914 -24.97343,0 -65.5318,-79.80233 0,79.80233 -30.04323,0 0,-131.43914 25.16121,0 65.34402,79.80233 0,-79.80233 30.04323,0 z"
         style="font-style:normal;font-variant:normal;font-weight:bold;font-stretch:normal;font-size:187.77018738px;font-family:Montserrat;-inkscape-font-specification:'Montserrat Bold';fill:#ffb300;fill-opacity:1"
         id="path4052"
         inkscape:connector-curvature="0" />
    </g>
  </g>
</svg>
