<?xml version="1.0" standalone="no"?>
<!DOCTYPE svg PUBLIC "-//W3C//DTD SVG 20010904//EN"
 "http://www.w3.org/TR/2001/REC-SVG-20010904/DTD/svg10.dtd">
<svg version="1.0" xmlns="http://www.w3.org/2000/svg"
 width="471.000000pt" height="471.000000pt" viewBox="0 0 471.000000 471.000000"
 preserveAspectRatio="xMidYMid meet">
<metadata>
Created by potrace 1.11, written by Peter Selinger 2001-2013
</metadata>
<g transform="translate(0.000000,471.000000) scale(0.100000,-0.100000)"
fill="#000000" stroke="none">
<path d="M2215 4700 c-22 -5 -53 -10 -70 -13 -53 -9 -168 -48 -244 -83 -126
-59 -225 -135 -346 -268 -39 -41 -132 -206 -149 -263 -4 -13 -11 -23 -15 -23
-16 0 -131 -121 -169 -178 -95 -140 -136 -267 -146 -451 -2 -31 -7 -36 -68
-66 -199 -96 -361 -276 -431 -475 -36 -104 -39 -119 -43 -255 -3 -137 17 -238
74 -359 92 -197 277 -362 487 -437 l50 -17 1 -836 c1 -624 5 -840 13 -850 7
-8 31 -17 54 -21 23 -3 83 -12 132 -20 50 -8 106 -17 125 -19 19 -2 107 -13
195 -25 171 -21 261 -30 366 -36 108 -7 104 -18 106 262 0 131 2 256 2 279 l1
41 275 0 275 0 0 -278 c0 -330 -6 -312 109 -305 42 3 110 10 151 16 41 6 93
13 115 15 22 3 54 7 70 9 17 2 50 7 75 10 25 4 68 11 95 16 47 9 78 13 168 26
21 3 46 7 55 9 9 2 20 4 24 4 4 1 14 8 22 16 14 14 15 107 16 813 0 438 0 818
0 843 0 42 3 48 26 53 82 21 234 117 319 201 170 170 248 369 241 615 -3 97
-8 129 -35 210 -71 211 -231 399 -419 490 l-52 25 -1 55 c0 30 -2 64 -3 75
-30 239 -123 414 -299 563 -21 18 -54 65 -77 108 -136 263 -396 452 -707 514
-69 14 -312 20 -368 10z m711 -3385 c0 -351 0 -355 -20 -356 -40 -2 -171 3
-177 6 -3 3 -6 162 -6 355 l0 350 102 0 101 0 0 -355z m-851 -7 l0 -348 -52
-1 c-29 -1 -62 -1 -73 -1 -11 0 -33 0 -50 1 l-30 1 0 350 0 349 102 -2 103 -2
0 -347z"/>
</g>
</svg>
